<svg xmlns="http://www.w3.org/2000/svg" width="385.621" height="48.231" viewBox="0 0 385.621 48.231">
  <g id="グループ_3" data-name="グループ 3" transform="translate(-104.827 -226.573)">
    <g id="グループ_1" data-name="グループ 1">
      <path id="パス_1" data-name="パス 1" d="M291.08,226.942c1.993,0,5.244.147,7.386.147,2.881,0,7.978-.295,9.75-.295,1.7,0,2.29.37,2.29.886,0,.665-.887,1.182-1.625,1.4-3.989.96-4.579,2.068-4.654,2.954-.517,3.694-.517,11.154-.517,22.085,0,5.1.076,11.153.371,13.664.146,1.773,2.363,2.806,2.658,2.88a47.8,47.8,0,0,0,6.131.37,29.994,29.994,0,0,0,5.317-.37,4.429,4.429,0,0,0,2.29-1.034,29,29,0,0,0,4.654-5.76,3.013,3.013,0,0,1,1.993-1.478c.517,0,.592.813.3,1.994-.814,2.586-1.922,6.648-2.364,8.716a3.415,3.415,0,0,1-1.7,1.255c-1.106,0-7.68-.516-22.675-.516-3.547,0-8.642.443-10.932.443-1.329,0-2.215-.3-2.215-.96,0-.518.665-1.182,1.847-1.4,4.062-.739,4.727-2.069,5.1-5.319.148-1.846.37-9.6.37-20.237,0-7.165,0-10.046-.075-12.483-.073-2.511-.442-3.693-3.84-4.5-1.4-.37-2.069-.887-2.069-1.4C288.863,227.238,289.75,226.942,291.08,226.942Z" fill="#1a1311"/>
      <path id="パス_2" data-name="パス 2" d="M354.235,247.77c.885,1.182,1.626,3.029,1.626,6.353,0,2.881-.3,11.67-.3,12.482a2.733,2.733,0,0,0,2.733,2.955,15.375,15.375,0,0,0,2.586-.887c.221-.147.3-.073.443.074a2.917,2.917,0,0,1,.222,1.035c0,1.4-3.472,5.022-7.609,5.022-2.142,0-4.431-.666-5.539-3.546-.073-.295-.517-.443-.665-.295a39.017,39.017,0,0,1-5.836,3.1,11.518,11.518,0,0,1-3.248.591c-2.734,0-5.687-3.323-5.687-7.46a6.846,6.846,0,0,1,1.328-3.767,5.965,5.965,0,0,1,2.66-1.772c1.624-.665,8.346-2.511,10.044-3.029.887-.295,1.331-.813,1.331-1.107.073-.666.221-4.728.146-5.688a5.038,5.038,0,0,0-4.949-4.727,4.164,4.164,0,0,0-2.363.517c-.3.147-.444.887-.444,3.4a.93.93,0,0,1-.3.664,38.617,38.617,0,0,1-6.5,2.955,1.177,1.177,0,0,1-.96-1.034c0-2.142,1.625-4.136,6.2-7.091a18.641,18.641,0,0,1,7.386-2.732A8.591,8.591,0,0,1,354.235,247.77Zm-6.944,21.568a2.261,2.261,0,0,0,.666-1.4c.148-1.035.3-4.136.3-6.574,0-.295-.3-.739-.517-.739a17.642,17.642,0,0,0-5.982,1.921c-.887.665-1.331,1.034-1.331,2.954a4.561,4.561,0,0,0,4.062,4.727A6.888,6.888,0,0,0,347.291,269.338Z" fill="#1a1311"/>
      <path id="パス_3" data-name="パス 3" d="M403.282,247.328c-.222.073-.147.664.073.664,5.1,2.142,8.864,5.836,8.864,12.187,0,4.876-2.733,8.347-6.279,10.71-3.545,2.511-10.265,3.249-13.219,3.249-2.068,0-10.194-.147-13.518-.22-2.658-.074-4.43.073-5.612.073-1.33,0-2.363-.517-2.363-1.182s1.255-1.107,2.066-1.255c4.506-.887,4.8-1.994,5.1-4.506.149-1.551.59-8.937.59-23.561a83.819,83.819,0,0,0-.441-11.08c-.37-1.624-.814-2.215-4.654-2.954-.96-.148-1.92-.591-1.92-1.4,0-.591,1.107-.961,2.067-.961h4.875c2.364,0,11.374-.516,14.4-.516,4.284,0,8.421.812,10.636,2.216a10.193,10.193,0,0,1,5.171,9.085C409.118,243.487,405.277,245.925,403.282,247.328Zm-12.261-18.1a14.529,14.529,0,0,0-2.586.444,2.5,2.5,0,0,0-.663,1.181c-.148,1.182-.3,3.324-.3,15.733,0,.369.371.961.814.961,2.659,0,6.869-.444,8.641-1.774a8.378,8.378,0,0,0,3.545-7.016C400.475,232.629,396.34,229.231,391.021,229.231Zm5.984,22.011a12.839,12.839,0,0,0-6.352-1.4,5.543,5.543,0,0,0-2.512.517c-.222.221-.59.591-.59,3.472-.076,1.92.146,10.783.3,13a5.34,5.34,0,0,0,.96,2.364c1.255,1.329,3.323,2.511,4.654,2.511,4.727,0,9.01-4.727,9.01-10.858A10.673,10.673,0,0,0,397.005,251.242Z" fill="#1a1311"/>
      <path id="パス_4" data-name="パス 4" d="M436.229,247.77c.885,1.182,1.623,3.029,1.623,6.353,0,2.881-.295,11.67-.295,12.482a2.735,2.735,0,0,0,2.734,2.955,15.369,15.369,0,0,0,2.585-.887c.222-.147.295-.073.444.074a2.936,2.936,0,0,1,.221,1.035c0,1.4-3.472,5.022-7.609,5.022-2.142,0-4.43-.666-5.539-3.546-.073-.295-.516-.443-.665-.295a38.919,38.919,0,0,1-5.835,3.1,11.532,11.532,0,0,1-3.249.591c-2.734,0-5.687-3.323-5.687-7.46a6.846,6.846,0,0,1,1.328-3.767,5.978,5.978,0,0,1,2.659-1.772c1.625-.665,8.347-2.511,10.046-3.029.887-.295,1.33-.813,1.33-1.107.073-.666.222-4.728.147-5.688a5.04,5.04,0,0,0-4.949-4.727,4.164,4.164,0,0,0-2.364.517c-.295.147-.443.887-.443,3.4a.934.934,0,0,1-.3.664,38.662,38.662,0,0,1-6.5,2.955,1.178,1.178,0,0,1-.96-1.034c0-2.142,1.623-4.136,6.2-7.091a18.638,18.638,0,0,1,7.385-2.732A8.593,8.593,0,0,1,436.229,247.77Zm-6.944,21.568a2.26,2.26,0,0,0,.665-1.4c.148-1.035.295-4.136.295-6.574,0-.295-.295-.739-.517-.739a17.641,17.641,0,0,0-5.982,1.921c-.887.665-1.33,1.034-1.33,2.954a4.56,4.56,0,0,0,4.062,4.727A6.893,6.893,0,0,0,429.285,269.338Z" fill="#1a1311"/>
      <path id="パス_5" data-name="パス 5" d="M448.419,246.294c3.026-.591,7.68-2.364,8.862-2.66.37,0,.738.591.738.813-.146,2.511-.368,12.408-.368,16.692,0,2.29.074,4.876.147,7.461.075,2.215.96,2.511,2.88,3.1,1.108.369,1.625.812,1.625,1.4s-1.033.96-2.067.96c-.518,0-4.505-.221-6.13-.221-2.364,0-5.909.294-7.166.294-1.182,0-2.067-.442-2.067-.96s.517-.885,1.921-1.329c1.771-.516,2.585-1.4,2.731-2.142.3-1.034.444-6.278.444-11.521,0-1.552,0-5.762-.149-6.649-.073-.59-.96-1.329-2.51-2.658-.443-.444-.887-.813-.887-1.182C446.423,247.106,447.237,246.515,448.419,246.294Zm9.749-13.369a4.958,4.958,0,0,1-4.432,4.5,5.049,5.049,0,0,1-2.954-1.256,4.45,4.45,0,0,1-1.4-3.249,5.335,5.335,0,0,1,1.182-3.25,5.622,5.622,0,0,1,3.691-1.33C456.838,228.345,458.168,231.226,458.168,232.925Z" fill="#1a1311"/>
      <path id="パス_6" data-name="パス 6" d="M487.641,246.885a8.973,8.973,0,0,1,2.807,6.5c0,.517-.741,1.773-1.625,1.773h-16.1a.833.833,0,0,0-.813.517,9.41,9.41,0,0,0-.295,2.659,14.029,14.029,0,0,0,2.29,6.869,10.369,10.369,0,0,0,8.2,3.693c3.1,0,5.244-.738,6.647-2.586.3-.443.665-.885.96-.885s.666.516.666.96a4.114,4.114,0,0,1-.59,1.846,13.115,13.115,0,0,1-11.818,6.426c-8.494,0-13.665-6.426-13.665-14.846a15.992,15.992,0,0,1,9.381-14.624,14.516,14.516,0,0,1,6.056-1.4A11.494,11.494,0,0,1,487.641,246.885Zm-15.29,5.243a.623.623,0,0,0,.517.739c1.92.074,4.21,0,7.9,0a2.45,2.45,0,0,0,2.585-2.511c0-2.068-2.068-4.506-4.137-4.506C476.118,245.85,473.238,248.8,472.351,252.128Z" fill="#1a1311"/>
    </g>
    <g id="グループ_2" data-name="グループ 2">
      <path id="パス_7" data-name="パス 7" d="M118.123,273.475a12.786,12.786,0,0,1-4.431.85,7.428,7.428,0,0,1-5.872-2.438c-1.81-1.92-3.028-5.355-2.992-9.9.037-9.676,4.986-13,9.38-13a7.884,7.884,0,0,1,3.546.7l-.628,2.437a6.232,6.232,0,0,0-2.88-.591c-3.1,0-6.463,2.475-6.463,10.193,0,7.681,2.918,10.156,5.909,10.156a4.083,4.083,0,0,0,1.736-.295v-8.125h-3.214V261.1h5.909Z" fill="#1a1311"/>
      <path id="パス_8" data-name="パス 8" d="M121.556,260.845c0-1.514-.11-3.287-.148-4.616h2.549l.147,2.806h.074a4.353,4.353,0,0,1,3.767-3.1c.222,0,.406.037.591.037v2.917a3.063,3.063,0,0,0-.591-.036c-1.81,0-3.139,1.662-3.434,3.729a10.864,10.864,0,0,0-.111,1.625v9.9h-2.844Z" fill="#1a1311"/>
      <path id="パス_9" data-name="パス 9" d="M140.055,270.041a28.428,28.428,0,0,0,.184,4.062h-2.584l-.185-1.884h-.111a4.01,4.01,0,0,1-3.545,2.179c-2.4,0-4.247-2.031-4.247-5.1,0-4.468,3.581-6.463,7.607-6.5v-.553c0-2.4-.59-4.063-2.844-4.063a5.385,5.385,0,0,0-2.954.923l-.628-1.994a7.691,7.691,0,0,1,4.173-1.182c3.583,0,5.134,2.363,5.134,6.389Zm-2.807-5.171c-1.477,0-4.911.259-4.911,4.137,0,2.326,1.182,3.176,2.178,3.176,1.256,0,2.327-.924,2.659-2.7a4.706,4.706,0,0,0,.074-1Z" fill="#1a1311"/>
      <path id="パス_10" data-name="パス 10" d="M142.974,260.845c0-2.105-.111-3.176-.148-4.616H145.3l.147,2.142h.073a4.54,4.54,0,0,1,4.1-2.438c2.474,0,4.321,1.847,4.321,6.167v12H151.1V262.58c0-2.1-.407-4.246-2.475-4.246-1.181,0-2.327,1-2.7,2.917a10.02,10.02,0,0,0-.111,1.588V274.1h-2.843Z" fill="#1a1311"/>
      <path id="パス_11" data-name="パス 11" d="M167.755,248.547v21.272c0,1.219.111,3.25.148,4.284h-2.438l-.184-2.253h-.111a4.113,4.113,0,0,1-3.73,2.548c-3.028,0-5.207-3.286-5.207-9.158,0-6.353,2.621-9.307,5.392-9.307a3.462,3.462,0,0,1,3.249,2.142h.074v-9.528Zm-2.807,14.477c0-.37,0-.775-.036-1.182-.185-1.846-1.293-3.471-2.66-3.471-2.363,0-3.176,3.287-3.176,6.869,0,3.767.96,6.794,3.029,6.794.887,0,2.105-.48,2.733-3.064a5.593,5.593,0,0,0,.11-1.182Z" fill="#1a1311"/>
      <path id="パス_12" data-name="パス 12" d="M173.52,265.425c.038,5.465,2.18,6.647,4.247,6.647a6.017,6.017,0,0,0,2.955-.7l.444,2.105a8.622,8.622,0,0,1-3.916.85c-4.284,0-6.5-3.509-6.5-8.975,0-5.8,2.437-9.417,6.019-9.417,3.657,0,5.1,3.841,5.1,7.9,0,.665,0,1.145-.036,1.589Zm5.614-2.1c.073-3.584-1.292-5.171-2.659-5.171-1.847,0-2.807,2.733-2.917,5.171Z" fill="#1a1311"/>
      <path id="パス_13" data-name="パス 13" d="M206.019,263.393c-.185-3.286-.368-6.942-.258-9.749h-.148c-.554,2.769-1.219,5.723-1.994,8.641l-3.065,11.67h-1.81l-2.917-11.19c-.812-3.176-1.552-6.241-2.032-9.121h-.11c0,2.917-.148,6.388-.295,9.934l-.48,10.525h-2.549l1.477-24.892H194.9l2.917,11.376c.85,3.286,1.479,5.724,1.995,8.567h.11c.481-2.843,1.036-5.207,1.847-8.567l2.807-11.376h3.175L209.2,274.1h-2.66Z" fill="#1a1311"/>
      <path id="パス_14" data-name="パス 14" d="M222.042,270.041a28.277,28.277,0,0,0,.185,4.062h-2.585l-.184-1.884h-.111A4.012,4.012,0,0,1,215.8,274.4c-2.4,0-4.247-2.031-4.247-5.1,0-4.468,3.582-6.463,7.608-6.5v-.553c0-2.4-.59-4.063-2.844-4.063a5.382,5.382,0,0,0-2.954.923l-.628-1.994a7.689,7.689,0,0,1,4.174-1.182c3.582,0,5.132,2.363,5.132,6.389Zm-2.805-5.171c-1.479,0-4.912.259-4.912,4.137,0,2.326,1.181,3.176,2.178,3.176,1.255,0,2.327-.924,2.659-2.7a4.645,4.645,0,0,0,.075-1Z" fill="#1a1311"/>
      <path id="パス_15" data-name="パス 15" d="M228.766,251.613a1.658,1.658,0,0,1-1.735,1.846,1.678,1.678,0,0,1-1.625-1.846,1.7,1.7,0,0,1,1.662-1.847A1.67,1.67,0,0,1,228.766,251.613ZM225.7,274.1V256.229h2.843V274.1Z" fill="#1a1311"/>
      <path id="パス_16" data-name="パス 16" d="M232.46,271.148a5.665,5.665,0,0,0,2.882.924,2.417,2.417,0,0,0,2.622-2.585c0-1.367-.48-2.29-2.29-3.509-2.327-1.514-3.582-3.028-3.582-5.1A4.8,4.8,0,0,1,237,255.933a6.147,6.147,0,0,1,3.212.923L239.441,259a4.205,4.205,0,0,0-2.364-.775,2.188,2.188,0,0,0-2.327,2.253c0,1.218.443,1.884,2.215,3.1,2.069,1.329,3.694,2.954,3.694,5.429,0,3.582-2.437,5.318-5.356,5.318a6.116,6.116,0,0,1-3.545-1.035Z" fill="#1a1311"/>
      <path id="パス_17" data-name="パス 17" d="M254.534,265.165c0,6.907-3.214,9.233-5.946,9.233-3.213,0-5.8-2.917-5.8-9.2,0-6.537,2.919-9.27,5.982-9.27C251.949,255.933,254.534,258.925,254.534,265.165Zm-8.9,0c0,2.955.517,6.98,3.1,6.98,2.439,0,2.918-4.209,2.918-6.98,0-2.732-.479-6.942-2.991-6.942C246.113,258.223,245.633,262.433,245.633,265.165Z" fill="#1a1311"/>
      <path id="パス_18" data-name="パス 18" d="M257.51,260.845c0-2.105-.109-3.176-.146-4.616h2.473l.149,2.142h.073a4.539,4.539,0,0,1,4.1-2.438c2.473,0,4.32,1.847,4.32,6.167v12h-2.844V262.58c0-2.1-.406-4.246-2.475-4.246-1.182,0-2.327,1-2.7,2.917a10.129,10.129,0,0,0-.112,1.588V274.1H257.51Z" fill="#1a1311"/>
    </g>
  </g>
</svg>
