<svg xmlns="http://www.w3.org/2000/svg" width="35.227" height="281.648" viewBox="0 0 35.227 281.648">
  <g id="グループ_8" data-name="グループ 8" transform="translate(-226.573 386.475) rotate(-90)">
    <g id="グループ_1" data-name="グループ 1" transform="translate(238.272 226.573)">
      <path id="パス_1" data-name="パス 1" d="M290.124,226.9c1.456,0,3.83.107,5.395.107,2.1,0,5.827-.215,7.121-.215,1.242,0,1.673.27,1.673.647,0,.486-.648.863-1.187,1.025-2.913.7-3.344,1.51-3.4,2.158-.378,2.7-.378,8.147-.378,16.13,0,3.722.056,8.146.271,9.98.107,1.295,1.726,2.049,1.941,2.1a34.917,34.917,0,0,0,4.478.27,21.909,21.909,0,0,0,3.883-.27,3.235,3.235,0,0,0,1.673-.755,21.183,21.183,0,0,0,3.4-4.207,2.2,2.2,0,0,1,1.456-1.079c.378,0,.432.594.217,1.456-.595,1.889-1.4,4.856-1.727,6.366a2.494,2.494,0,0,1-1.242.917c-.808,0-5.609-.377-16.561-.377-2.591,0-6.312.324-7.984.324-.971,0-1.618-.216-1.618-.7,0-.378.486-.863,1.349-1.025,2.967-.54,3.452-1.511,3.721-3.885.108-1.348.27-7.012.27-14.781,0-5.233,0-7.337-.055-9.117-.053-1.834-.323-2.7-2.8-3.29-1.025-.27-1.511-.648-1.511-1.025C288.5,227.118,289.153,226.9,290.124,226.9Z" transform="translate(-287.535 -226.633)" fill="#1a1311"/>
      <path id="パス_2" data-name="パス 2" d="M348.5,246.7a7.409,7.409,0,0,1,1.188,4.64c0,2.1-.217,8.523-.217,9.117a2,2,0,0,0,2,2.158,11.233,11.233,0,0,0,1.889-.648c.161-.107.215-.053.324.054a2.131,2.131,0,0,1,.162.756c0,1.025-2.536,3.668-5.557,3.668a3.922,3.922,0,0,1-4.046-2.59c-.053-.215-.378-.324-.486-.215a28.5,28.5,0,0,1-4.262,2.266,8.413,8.413,0,0,1-2.372.432c-2,0-4.154-2.427-4.154-5.449a5,5,0,0,1,.97-2.751,4.357,4.357,0,0,1,1.943-1.294c1.186-.486,6.1-1.834,7.336-2.212.648-.215.972-.594.972-.809.053-.486.161-3.453.107-4.154a3.68,3.68,0,0,0-3.615-3.452,3.042,3.042,0,0,0-1.726.378c-.215.107-.324.648-.324,2.482a.68.68,0,0,1-.215.485,28.205,28.205,0,0,1-4.746,2.158.86.86,0,0,1-.7-.755c0-1.564,1.187-3.021,4.531-5.179a13.615,13.615,0,0,1,5.395-2A6.275,6.275,0,0,1,348.5,246.7Zm-5.072,15.753a1.652,1.652,0,0,0,.486-1.025c.108-.756.215-3.021.215-4.8,0-.215-.215-.54-.378-.54a12.885,12.885,0,0,0-4.369,1.4c-.648.486-.972.755-.972,2.158a3.331,3.331,0,0,0,2.967,3.452A5.031,5.031,0,0,0,343.428,262.448Z" transform="translate(-299.784 -231.213)" fill="#1a1311"/>
      <path id="パス_3" data-name="パス 3" d="M394.639,241.732c-.162.053-.107.485.053.485,3.723,1.564,6.474,4.262,6.474,8.9,0,3.561-2,6.1-4.586,7.822-2.589,1.834-7.5,2.373-9.655,2.373-1.51,0-7.445-.107-9.873-.161-1.941-.054-3.236.053-4.1.053-.971,0-1.726-.378-1.726-.863s.917-.809,1.509-.917c3.291-.648,3.507-1.456,3.723-3.291.109-1.133.431-6.527.431-17.208a61.221,61.221,0,0,0-.322-8.093c-.27-1.186-.595-1.618-3.4-2.158-.7-.108-1.4-.432-1.4-1.025,0-.432.809-.7,1.51-.7h3.561c1.727,0,8.307-.377,10.52-.377,3.129,0,6.15.593,7.768,1.619a7.445,7.445,0,0,1,3.777,6.635C398.9,238.927,396.1,240.707,394.639,241.732Zm-8.955-13.218a10.611,10.611,0,0,0-1.889.324,1.823,1.823,0,0,0-.484.863c-.108.863-.217,2.428-.217,11.491,0,.27.271.7.595.7,1.942,0,5.017-.324,6.311-1.3a6.119,6.119,0,0,0,2.589-5.124A6.524,6.524,0,0,0,385.684,228.514Zm4.371,16.076a9.378,9.378,0,0,0-4.639-1.025,4.049,4.049,0,0,0-1.835.378c-.162.161-.431.432-.431,2.536-.055,1.4.107,7.876.215,9.494a3.9,3.9,0,0,0,.7,1.727,5.778,5.778,0,0,0,3.4,1.834c3.452,0,6.581-3.452,6.581-7.93A7.8,7.8,0,0,0,390.055,244.591Z" transform="translate(-310.101 -226.573)" fill="#1a1311"/>
      <path id="パス_4" data-name="パス 4" d="M430.494,246.7a7.41,7.41,0,0,1,1.185,4.64c0,2.1-.215,8.523-.215,9.117a2,2,0,0,0,2,2.158,11.229,11.229,0,0,0,1.888-.648c.162-.107.215-.053.324.054a2.144,2.144,0,0,1,.161.756c0,1.025-2.536,3.668-5.557,3.668a3.922,3.922,0,0,1-4.046-2.59c-.053-.215-.377-.324-.486-.215a28.424,28.424,0,0,1-4.262,2.266,8.423,8.423,0,0,1-2.373.432c-2,0-4.154-2.427-4.154-5.449a5,5,0,0,1,.97-2.751,4.366,4.366,0,0,1,1.942-1.294c1.187-.486,6.1-1.834,7.337-2.212.648-.215.971-.594.971-.809.053-.486.162-3.453.107-4.154a3.681,3.681,0,0,0-3.615-3.452,3.041,3.041,0,0,0-1.727.378c-.215.107-.324.648-.324,2.482a.683.683,0,0,1-.216.485,28.237,28.237,0,0,1-4.747,2.158.86.86,0,0,1-.7-.755c0-1.564,1.185-3.021,4.531-5.179a13.613,13.613,0,0,1,5.394-2A6.276,6.276,0,0,1,430.494,246.7Zm-5.072,15.753a1.65,1.65,0,0,0,.486-1.025c.108-.756.215-3.021.215-4.8,0-.215-.215-.54-.378-.54a12.885,12.885,0,0,0-4.369,1.4c-.648.486-.971.755-.971,2.158a3.331,3.331,0,0,0,2.967,3.452A5.034,5.034,0,0,0,425.422,262.448Z" transform="translate(-321.891 -231.213)" fill="#1a1311"/>
      <path id="パス_5" data-name="パス 5" d="M447.463,241.455c2.21-.432,5.609-1.727,6.473-1.943.27,0,.539.432.539.594-.107,1.834-.269,9.063-.269,12.191,0,1.673.054,3.561.107,5.449.055,1.618.7,1.834,2.1,2.266.809.27,1.187.593,1.187,1.025s-.754.7-1.51.7c-.378,0-3.29-.161-4.477-.161-1.727,0-4.316.215-5.234.215-.863,0-1.51-.323-1.51-.7s.378-.646,1.4-.971c1.293-.377,1.888-1.025,1.995-1.564a65.63,65.63,0,0,0,.324-8.415c0-1.134,0-4.208-.109-4.856-.053-.431-.7-.971-1.833-1.941-.324-.324-.648-.594-.648-.863C446.005,242.048,446.6,241.616,447.463,241.455Zm7.12-9.764a3.621,3.621,0,0,1-3.237,3.29,3.688,3.688,0,0,1-2.158-.917,3.25,3.25,0,0,1-1.025-2.373,3.9,3.9,0,0,1,.863-2.374,4.106,4.106,0,0,1,2.7-.971C453.612,228.345,454.583,230.449,454.583,231.69Z" transform="translate(-329.957 -227.051)" fill="#1a1311"/>
      <path id="パス_6" data-name="パス 6" d="M481.348,246.049a6.554,6.554,0,0,1,2.05,4.747c0,.378-.541,1.295-1.187,1.295h-11.76a.609.609,0,0,0-.594.378,6.874,6.874,0,0,0-.215,1.942,10.246,10.246,0,0,0,1.673,5.017,7.574,7.574,0,0,0,5.987,2.7c2.266,0,3.83-.539,4.855-1.889.217-.324.486-.646.7-.646s.486.377.486.7a3,3,0,0,1-.431,1.348,9.579,9.579,0,0,1-8.632,4.693c-6.2,0-9.981-4.693-9.981-10.843a11.68,11.68,0,0,1,6.852-10.681,10.6,10.6,0,0,1,4.423-1.025A8.4,8.4,0,0,1,481.348,246.049Zm-11.167,3.829a.455.455,0,0,0,.378.54c1.4.054,3.075,0,5.773,0a1.79,1.79,0,0,0,1.888-1.834,3.517,3.517,0,0,0-3.022-3.291C472.932,245.293,470.828,247.451,470.18,249.878Z" transform="translate(-335.195 -231.213)" fill="#1a1311"/>
    </g>
    <g id="グループ_2" data-name="グループ 2" transform="translate(104.827 242.622)">
      <path id="パス_7" data-name="パス 7" d="M114.538,266.874a9.338,9.338,0,0,1-3.236.621,5.425,5.425,0,0,1-4.289-1.781c-1.322-1.4-2.212-3.911-2.185-7.229.027-7.067,3.642-9.494,6.851-9.494a5.758,5.758,0,0,1,2.59.512l-.459,1.78a4.551,4.551,0,0,0-2.1-.432c-2.266,0-4.72,1.808-4.72,7.445,0,5.61,2.131,7.418,4.316,7.418a2.982,2.982,0,0,0,1.268-.215v-5.934h-2.347v-1.727h4.316Z" transform="translate(-104.827 -248.667)" fill="#1a1311"/>
      <path id="パス_8" data-name="パス 8" d="M121.516,259.521c0-1.106-.08-2.4-.108-3.371h1.862l.107,2.049h.054a3.179,3.179,0,0,1,2.751-2.266c.162,0,.3.027.432.027v2.13a2.238,2.238,0,0,0-.432-.026c-1.322,0-2.293,1.214-2.508,2.724a7.933,7.933,0,0,0-.081,1.187V269.2h-2.077Z" transform="translate(-109.298 -250.538)" fill="#1a1311"/>
      <path id="パス_9" data-name="パス 9" d="M137.227,266.237a20.762,20.762,0,0,0,.134,2.967h-1.887l-.135-1.376h-.081a2.929,2.929,0,0,1-2.589,1.592c-1.754,0-3.1-1.483-3.1-3.722,0-3.263,2.615-4.72,5.556-4.747v-.4c0-1.754-.431-2.967-2.077-2.967a3.933,3.933,0,0,0-2.158.674l-.459-1.456a5.617,5.617,0,0,1,3.048-.863c2.617,0,3.75,1.726,3.75,4.666Zm-2.05-3.777c-1.079,0-3.587.189-3.587,3.022,0,1.7.863,2.32,1.591,2.32.917,0,1.7-.675,1.942-1.969a3.438,3.438,0,0,0,.054-.729Z" transform="translate(-111.498 -250.538)" fill="#1a1311"/>
      <path id="パス_10" data-name="パス 10" d="M142.934,259.521c0-1.537-.081-2.32-.108-3.371h1.808l.107,1.564h.053a3.316,3.316,0,0,1,2.995-1.781c1.807,0,3.156,1.349,3.156,4.5V269.2h-2.076v-8.416c0-1.537-.3-3.1-1.808-3.1-.863,0-1.7.728-1.969,2.13a7.319,7.319,0,0,0-.081,1.16V269.2h-2.076Z" transform="translate(-115.073 -250.538)" fill="#1a1311"/>
      <path id="パス_11" data-name="パス 11" d="M164.648,248.547v15.537c0,.89.081,2.374.108,3.129h-1.781l-.134-1.646h-.081a3,3,0,0,1-2.724,1.861c-2.212,0-3.8-2.4-3.8-6.689,0-4.64,1.914-6.8,3.938-6.8a2.529,2.529,0,0,1,2.373,1.564h.054v-6.959Zm-2.05,10.574c0-.27,0-.566-.026-.863-.135-1.348-.944-2.535-1.943-2.535-1.726,0-2.32,2.4-2.32,5.017,0,2.751.7,4.962,2.212,4.962.648,0,1.537-.351,2-2.238a4.085,4.085,0,0,0,.08-.863Z" transform="translate(-118.687 -248.547)" fill="#1a1311"/>
      <path id="パス_12" data-name="パス 12" d="M172.773,262.866c.028,3.992,1.592,4.855,3.1,4.855a4.394,4.394,0,0,0,2.158-.513l.324,1.537a6.3,6.3,0,0,1-2.86.621c-3.129,0-4.747-2.563-4.747-6.555,0-4.234,1.78-6.878,4.4-6.878,2.671,0,3.723,2.805,3.723,5.772,0,.486,0,.836-.026,1.161Zm4.1-1.537c.053-2.618-.944-3.777-1.942-3.777-1.349,0-2.05,2-2.13,3.777Z" transform="translate(-122.602 -250.538)" fill="#1a1311"/>
      <path id="パス_13" data-name="パス 13" d="M201.8,259.569c-.135-2.4-.269-5.07-.188-7.12H201.5c-.4,2.022-.89,4.18-1.456,6.311l-2.239,8.523h-1.322l-2.131-8.173c-.593-2.32-1.134-4.558-1.484-6.662h-.08c0,2.131-.108,4.666-.215,7.256l-.351,7.687h-1.862l1.079-18.181h2.239l2.131,8.309c.621,2.4,1.08,4.181,1.457,6.257h.08c.351-2.076.757-3.8,1.349-6.257l2.05-8.309h2.319l1.053,18.181h-1.943Z" transform="translate(-127.889 -248.726)" fill="#1a1311"/>
      <path id="パス_14" data-name="パス 14" d="M219.214,266.237a20.653,20.653,0,0,0,.135,2.967h-1.888l-.134-1.376h-.081a2.93,2.93,0,0,1-2.59,1.592c-1.753,0-3.1-1.483-3.1-3.722,0-3.263,2.616-4.72,5.557-4.747v-.4c0-1.754-.431-2.967-2.077-2.967a3.931,3.931,0,0,0-2.158.674l-.459-1.456a5.616,5.616,0,0,1,3.049-.863c2.616,0,3.748,1.726,3.748,4.666Zm-2.049-3.777c-1.08,0-3.588.189-3.588,3.022,0,1.7.863,2.32,1.591,2.32.917,0,1.7-.675,1.942-1.969a3.393,3.393,0,0,0,.055-.729Z" transform="translate(-133.603 -250.538)" fill="#1a1311"/>
      <path id="パス_15" data-name="パス 15" d="M227.86,251.115a1.211,1.211,0,0,1-1.267,1.348,1.226,1.226,0,0,1-1.187-1.348,1.245,1.245,0,0,1,1.214-1.349A1.22,1.22,0,0,1,227.86,251.115Zm-2.239,16.426V254.486H227.7v13.055Z" transform="translate(-137.338 -248.876)" fill="#1a1311"/>
      <path id="パス_16" data-name="パス 16" d="M232.271,267.046a4.138,4.138,0,0,0,2.1.675,1.765,1.765,0,0,0,1.915-1.888c0-1-.351-1.673-1.673-2.563-1.7-1.106-2.616-2.212-2.616-3.722a3.509,3.509,0,0,1,3.588-3.615,4.489,4.489,0,0,1,2.346.674l-.566,1.564a3.071,3.071,0,0,0-1.727-.566,1.6,1.6,0,0,0-1.7,1.646c0,.89.324,1.376,1.618,2.266,1.511.971,2.7,2.158,2.7,3.965a3.642,3.642,0,0,1-3.912,3.884,4.467,4.467,0,0,1-2.589-.756Z" transform="translate(-139.051 -250.538)" fill="#1a1311"/>
      <path id="パス_17" data-name="パス 17" d="M251.367,262.676c0,5.045-2.347,6.744-4.343,6.744-2.347,0-4.235-2.131-4.235-6.716,0-4.774,2.132-6.771,4.369-6.771C249.479,255.933,251.367,258.118,251.367,262.676Zm-6.5,0c0,2.158.378,5.1,2.266,5.1,1.781,0,2.131-3.074,2.131-5.1,0-2-.35-5.07-2.185-5.07C245.217,257.606,244.866,260.68,244.866,262.676Z" transform="translate(-142.025 -250.538)" fill="#1a1311"/>
      <path id="パス_18" data-name="パス 18" d="M257.471,259.521c0-1.537-.08-2.32-.107-3.371h1.806l.109,1.564h.053a3.315,3.315,0,0,1,3-1.781c1.806,0,3.155,1.349,3.155,4.5V269.2h-2.077v-8.416c0-1.537-.3-3.1-1.808-3.1-.863,0-1.7.728-1.968,2.13a7.4,7.4,0,0,0-.082,1.16V269.2h-2.077Z" transform="translate(-145.955 -250.538)" fill="#1a1311"/>
    </g>
  </g>
</svg>
