<svg id="グループ_7" data-name="グループ 7" xmlns="http://www.w3.org/2000/svg" width="204.82" height="86.122" viewBox="0 0 204.82 86.122">
  <g id="グループ_4" data-name="グループ 4" transform="translate(0 37.429)">
    <path id="パス_19" data-name="パス 19" d="M176.489,501.117c2.014,0,5.294.149,7.457.149,2.908,0,8.053-.3,9.844-.3,1.715,0,2.311.374,2.311.9,0,.672-.895,1.192-1.64,1.417-4.027.969-4.623,2.088-4.7,2.982-.522,3.729-.522,11.261-.522,22.3,0,5.144.076,11.259.373,13.795.149,1.79,2.386,2.833,2.685,2.907a48.112,48.112,0,0,0,6.19.374,30.217,30.217,0,0,0,5.368-.374,4.479,4.479,0,0,0,2.312-1.043,29.333,29.333,0,0,0,4.7-5.817,3.043,3.043,0,0,1,2.014-1.491c.521,0,.6.82.3,2.013-.82,2.61-1.939,6.711-2.386,8.8a3.457,3.457,0,0,1-1.715,1.268c-1.119,0-7.755-.522-22.894-.522-3.578,0-8.724.448-11.036.448-1.342,0-2.237-.3-2.237-.971,0-.522.671-1.194,1.864-1.416,4.1-.746,4.773-2.088,5.146-5.37.149-1.863.373-9.694.373-20.431,0-7.233,0-10.142-.075-12.6-.074-2.535-.447-3.729-3.877-4.549-1.417-.372-2.089-.894-2.089-1.416C174.252,501.415,175.147,501.117,176.489,501.117Z" transform="translate(-172.91 -500.744)" fill="#fafafa"/>
    <path id="パス_20" data-name="パス 20" d="M250.234,525.883c.895,1.194,1.641,3.058,1.641,6.414,0,2.907-.3,11.781-.3,12.6a2.76,2.76,0,0,0,2.76,2.984,15.471,15.471,0,0,0,2.61-.9c.223-.149.3-.074.447.075a2.929,2.929,0,0,1,.224,1.044c0,1.416-3.5,5.07-7.68,5.07-2.163,0-4.475-.671-5.593-3.579-.075-.3-.521-.447-.671-.3a39.28,39.28,0,0,1-5.891,3.131,11.621,11.621,0,0,1-3.281.6c-2.76,0-5.743-3.356-5.743-7.532a6.9,6.9,0,0,1,1.342-3.8,6.027,6.027,0,0,1,2.685-1.79c1.64-.671,8.427-2.535,10.142-3.058.895-.3,1.342-.819,1.342-1.117.075-.671.224-4.772.149-5.743a5.088,5.088,0,0,0-5-4.772,4.205,4.205,0,0,0-2.386.522c-.3.149-.447.894-.447,3.43a.944.944,0,0,1-.3.671,39,39,0,0,1-6.563,2.984,1.19,1.19,0,0,1-.97-1.045c0-2.162,1.641-4.175,6.265-7.157a18.8,18.8,0,0,1,7.457-2.76A8.671,8.671,0,0,1,250.234,525.883Zm-7.009,21.774a2.278,2.278,0,0,0,.671-1.416c.149-1.043.3-4.176.3-6.635,0-.3-.3-.747-.522-.747a17.823,17.823,0,0,0-6.041,1.939c-.894.672-1.342,1.045-1.342,2.984a4.606,4.606,0,0,0,4.1,4.773A6.957,6.957,0,0,0,243.224,547.656Z" transform="translate(-182.903 -504.481)" fill="#fafafa"/>
    <path id="パス_21" data-name="パス 21" d="M308.161,521.649c-.225.075-.149.672.074.672,5.146,2.162,8.949,5.889,8.949,12.3,0,4.921-2.76,8.426-6.338,10.813-3.581,2.535-10.365,3.28-13.349,3.28-2.088,0-10.29-.149-13.646-.223-2.685-.075-4.473.074-5.667.074-1.342,0-2.387-.522-2.387-1.193s1.268-1.117,2.09-1.266c4.547-.9,4.847-2.014,5.144-4.549.149-1.566.6-9.023.6-23.788a83.726,83.726,0,0,0-.448-11.185c-.374-1.641-.819-2.238-4.7-2.984-.969-.149-1.938-.6-1.938-1.417,0-.6,1.117-.968,2.086-.968h4.923c2.385,0,11.482-.523,14.54-.523,4.325,0,8.5.82,10.738,2.237a10.292,10.292,0,0,1,5.22,9.172C314.052,517.772,310.174,520.233,308.161,521.649Zm-12.378-18.27a14.565,14.565,0,0,0-2.61.448,2.49,2.49,0,0,0-.671,1.191c-.151,1.194-.3,3.356-.3,15.884,0,.372.374.969.82.969,2.684,0,6.936-.448,8.725-1.79A8.461,8.461,0,0,0,305.327,513C305.327,506.81,301.152,503.38,295.783,503.38Zm6.041,22.222a12.944,12.944,0,0,0-6.414-1.418,5.612,5.612,0,0,0-2.535.522c-.223.225-.6.6-.6,3.5-.076,1.939.149,10.887.3,13.126a5.4,5.4,0,0,0,.969,2.385c1.268,1.342,3.356,2.536,4.7,2.536,4.772,0,9.1-4.773,9.1-10.962A10.773,10.773,0,0,0,301.823,525.6Z" transform="translate(-191.32 -500.695)" fill="#fafafa"/>
    <path id="パス_22" data-name="パス 22" d="M351.03,525.883c.9,1.194,1.642,3.058,1.642,6.414,0,2.907-.3,11.781-.3,12.6a2.761,2.761,0,0,0,2.76,2.984,15.414,15.414,0,0,0,2.608-.9c.225-.149.3-.074.448.075a2.908,2.908,0,0,1,.223,1.044c0,1.416-3.5,5.07-7.68,5.07-2.163,0-4.473-.671-5.592-3.579-.075-.3-.521-.447-.672-.3a39.275,39.275,0,0,1-5.889,3.131,11.632,11.632,0,0,1-3.283.6c-2.758,0-5.742-3.356-5.742-7.532a6.9,6.9,0,0,1,1.342-3.8,6.022,6.022,0,0,1,2.685-1.79c1.641-.671,8.426-2.535,10.141-3.058.9-.3,1.342-.819,1.342-1.117.075-.671.225-4.772.149-5.743a5.086,5.086,0,0,0-5-4.772,4.209,4.209,0,0,0-2.387.522c-.3.149-.447.894-.447,3.43a.944.944,0,0,1-.3.671,39.058,39.058,0,0,1-6.563,2.984,1.189,1.189,0,0,1-.97-1.045c0-2.162,1.641-4.175,6.264-7.157a18.809,18.809,0,0,1,7.459-2.76A8.668,8.668,0,0,1,351.03,525.883Zm-7.009,21.774a2.274,2.274,0,0,0,.671-1.416c.149-1.043.3-4.176.3-6.635,0-.3-.3-.747-.523-.747a17.819,17.819,0,0,0-6.04,1.939c-.895.672-1.341,1.045-1.341,2.984a4.6,4.6,0,0,0,4.1,4.773A6.964,6.964,0,0,0,344.021,547.656Z" transform="translate(-200.939 -504.481)" fill="#fafafa"/>
    <path id="パス_23" data-name="パス 23" d="M369.913,521c3.057-.6,7.755-2.385,8.947-2.685.374,0,.747.6.747.82-.149,2.535-.374,12.529-.374,16.853,0,2.312.076,4.921.149,7.532.076,2.237.97,2.535,2.909,3.132,1.117.372,1.641.819,1.641,1.416s-1.045.969-2.088.969c-.521,0-4.548-.223-6.189-.223-2.385,0-5.966.3-7.233.3-1.193,0-2.089-.447-2.089-.969s.522-.894,1.939-1.342c1.791-.522,2.61-1.416,2.76-2.162.3-1.045.448-6.339.448-11.633,0-1.566,0-5.817-.15-6.711-.073-.6-.969-1.342-2.534-2.685-.448-.448-.895-.82-.895-1.194C367.9,521.816,368.72,521.22,369.913,521Zm9.843-13.5a5.006,5.006,0,0,1-4.473,4.55,5.11,5.11,0,0,1-2.984-1.268,4.5,4.5,0,0,1-1.417-3.282,5.394,5.394,0,0,1,1.194-3.279,5.677,5.677,0,0,1,3.728-1.342C378.413,502.876,379.756,505.783,379.756,507.5Z" transform="translate(-207.52 -501.085)" fill="#fafafa"/>
    <path id="パス_24" data-name="パス 24" d="M413.78,524.988a9.06,9.06,0,0,1,2.833,6.563c0,.521-.746,1.788-1.642,1.788H398.715a.842.842,0,0,0-.819.522,9.541,9.541,0,0,0-.3,2.685,14.172,14.172,0,0,0,2.311,6.935,10.474,10.474,0,0,0,8.277,3.729c3.132,0,5.294-.746,6.711-2.61.3-.448.671-.894.97-.894s.671.521.671.968a4.159,4.159,0,0,1-.6,1.866,13.239,13.239,0,0,1-11.932,6.486c-8.574,0-13.795-6.486-13.795-14.989a16.143,16.143,0,0,1,9.47-14.764,14.661,14.661,0,0,1,6.115-1.418A11.608,11.608,0,0,1,413.78,524.988Zm-15.436,5.294a.626.626,0,0,0,.522.745c1.939.075,4.25,0,7.977,0a2.474,2.474,0,0,0,2.61-2.535c0-2.088-2.088-4.548-4.176-4.548C402.147,523.945,399.238,526.927,398.344,530.283Z" transform="translate(-211.793 -504.481)" fill="#fafafa"/>
  </g>
  <g id="グループ_6" data-name="グループ 6" transform="translate(42.64 0)">
    <g id="グループ_5" data-name="グループ 5">
      <path id="パス_25" data-name="パス 25" d="M235.592,468.453a12.22,12.22,0,0,1-4.024.718,6.154,6.154,0,0,1-6.726-6.61c.02-3.906,2.7-6.765,7.1-6.765a8.112,8.112,0,0,1,3.266.6l-.409,1.38a6.787,6.787,0,0,0-2.9-.563,4.9,4.9,0,0,0-5.268,5.268c0,3.325,2,5.288,5.054,5.288a5.48,5.48,0,0,0,2.255-.351v-3.907h-2.664v-1.361h4.316Z" transform="translate(-224.842 -455.232)" fill="#fafafa"/>
      <path id="パス_26" data-name="パス 26" d="M240.943,463.349c0-1.108-.02-2.061-.078-2.934h1.5l.058,1.846h.078a2.821,2.821,0,0,1,2.6-2.059,1.837,1.837,0,0,1,.487.058v1.613a2.543,2.543,0,0,0-.583-.059,2.4,2.4,0,0,0-2.295,2.2,4.866,4.866,0,0,0-.077.8v5.014h-1.691Z" transform="translate(-227.709 -456.02)" fill="#fafafa"/>
      <path id="パス_27" data-name="パス 27" d="M255.06,467.569a13.164,13.164,0,0,0,.156,2.254h-1.555l-.136-1.186h-.058a3.5,3.5,0,0,1-2.877,1.4,2.68,2.68,0,0,1-2.877-2.7c0-2.274,2.021-3.519,5.656-3.5v-.2a1.94,1.94,0,0,0-2.137-2.177,4.688,4.688,0,0,0-2.45.7l-.389-1.127a5.845,5.845,0,0,1,3.091-.836c2.877,0,3.577,1.963,3.577,3.848Zm-1.653-2.549c-1.865-.038-3.985.293-3.985,2.12a1.514,1.514,0,0,0,1.613,1.633,2.341,2.341,0,0,0,2.275-1.575,1.81,1.81,0,0,0,.1-.544Z" transform="translate(-228.934 -456.02)" fill="#fafafa"/>
      <path id="パス_28" data-name="パス 28" d="M259.326,462.96c0-.971-.019-1.768-.078-2.545h1.516l.1,1.554h.039a3.462,3.462,0,0,1,3.11-1.768c1.3,0,3.324.778,3.324,4v5.619h-1.711V464.4c0-1.516-.564-2.779-2.177-2.779a2.429,2.429,0,0,0-2.293,1.748,2.46,2.46,0,0,0-.117.8v5.657h-1.711Z" transform="translate(-230.998 -456.02)" fill="#fafafa"/>
      <path id="パス_29" data-name="パス 29" d="M279.878,455.109v11.373c0,.836.019,1.787.077,2.43h-1.535l-.078-1.633H278.3a3.478,3.478,0,0,1-3.207,1.847c-2.274,0-4.025-1.925-4.025-4.782-.019-3.132,1.925-5.054,4.219-5.054a3.146,3.146,0,0,1,2.839,1.439h.038v-5.619Zm-1.712,8.225a3.025,3.025,0,0,0-.077-.721,2.516,2.516,0,0,0-2.469-1.983c-1.769,0-2.82,1.554-2.82,3.636,0,1.9.934,3.48,2.781,3.48a2.573,2.573,0,0,0,2.508-2.041,2.977,2.977,0,0,0,.077-.739Z" transform="translate(-233.114 -455.109)" fill="#fafafa"/>
      <path id="パス_30" data-name="パス 30" d="M285.927,465.43a3.015,3.015,0,0,0,3.228,3.267,6.186,6.186,0,0,0,2.6-.488l.293,1.225a7.556,7.556,0,0,1-3.132.6c-2.9,0-4.627-1.925-4.627-4.763s1.673-5.073,4.413-5.073c3.072,0,3.889,2.7,3.889,4.432a6.513,6.513,0,0,1-.059.8Zm5.016-1.225c.019-1.088-.448-2.78-2.373-2.78a2.836,2.836,0,0,0-2.624,2.78Z" transform="translate(-235.48 -456.02)" fill="#fafafa"/>
      <path id="パス_31" data-name="パス 31" d="M313.049,463.311c-.1-1.829-.213-4.026-.195-5.658H312.8c-.446,1.536-.99,3.188-1.652,4.977l-2.313,6.357h-1.283l-2.118-6.242c-.622-1.846-1.147-3.535-1.517-5.092h-.039c-.038,1.632-.136,3.829-.253,5.793l-.35,5.619h-1.613l.914-13.1h2.157l2.237,6.338c.545,1.614.991,3.052,1.322,4.413h.058c.331-1.322.8-2.76,1.381-4.413l2.333-6.338h2.158l.817,13.1H313.38Z" transform="translate(-238.587 -455.262)" fill="#fafafa"/>
      <path id="パス_32" data-name="パス 32" d="M327.418,467.569a13.171,13.171,0,0,0,.155,2.254h-1.554l-.136-1.186h-.058a3.5,3.5,0,0,1-2.878,1.4,2.68,2.68,0,0,1-2.876-2.7c0-2.274,2.021-3.519,5.656-3.5v-.2a1.94,1.94,0,0,0-2.138-2.177,4.692,4.692,0,0,0-2.449.7l-.389-1.127a5.85,5.85,0,0,1,3.091-.836c2.878,0,3.577,1.963,3.577,3.848Zm-1.653-2.549c-1.865-.038-3.985.293-3.985,2.12a1.515,1.515,0,0,0,1.615,1.633,2.341,2.341,0,0,0,2.274-1.575,1.835,1.835,0,0,0,.1-.544Z" transform="translate(-241.882 -456.02)" fill="#fafafa"/>
      <path id="パス_33" data-name="パス 33" d="M334.033,457.009a1.059,1.059,0,0,1-2.117,0,1.043,1.043,0,0,1,1.068-1.071A1.016,1.016,0,0,1,334.033,457.009Zm-1.9,12.052v-9.409h1.711v9.409Z" transform="translate(-244.001 -455.257)" fill="#fafafa"/>
      <path id="パス_34" data-name="パス 34" d="M337.625,468.073a4.46,4.46,0,0,0,2.256.681c1.244,0,1.827-.621,1.827-1.4,0-.817-.486-1.264-1.75-1.73-1.692-.6-2.488-1.535-2.488-2.664,0-1.515,1.223-2.759,3.247-2.759a4.7,4.7,0,0,1,2.312.582l-.427,1.245a3.661,3.661,0,0,0-1.925-.544c-1.011,0-1.575.583-1.575,1.283,0,.778.564,1.127,1.789,1.594,1.633.622,2.469,1.439,2.469,2.838,0,1.653-1.283,2.838-3.518,2.838a5.375,5.375,0,0,1-2.644-.66Z" transform="translate(-244.946 -456.02)" fill="#fafafa"/>
      <path id="パス_35" data-name="パス 35" d="M355.628,465.041a4.6,4.6,0,0,1-4.685,5c-2.547,0-4.509-1.866-4.509-4.841,0-3.148,2.061-5,4.664-5C353.8,460.2,355.628,462.164,355.628,465.041Zm-7.464.1c0,2.061,1.186,3.615,2.857,3.615,1.634,0,2.859-1.535,2.859-3.653,0-1.6-.8-3.616-2.819-3.616S348.164,463.349,348.164,465.138Z" transform="translate(-246.599 -456.02)" fill="#fafafa"/>
      <path id="パス_36" data-name="パス 36" d="M360.114,462.96c0-.971-.021-1.768-.078-2.545h1.517l.1,1.554h.039A3.459,3.459,0,0,1,364.8,460.2c1.3,0,3.325.778,3.325,4v5.619h-1.71V464.4c0-1.516-.564-2.779-2.178-2.779a2.429,2.429,0,0,0-2.293,1.748,2.463,2.463,0,0,0-.116.8v5.657h-1.711Z" transform="translate(-249.033 -456.02)" fill="#fafafa"/>
    </g>
  </g>
</svg>
